# xmcd
#
# Track frame offsets: 
#        150
#        13485
#        36975
#        68497
#        87455
#        118920
#        142390
#        169070
#        190265
#        229117
#
# Disc length: 3418 seconds
#
# Revision: 3
# Processed by: cddbd v1.5.2PL0 Copyright (c) Steve Scherf et al.
# Submitted via: ExactAudioCopy v0.99pb5
#
DISCID=940d580a
DTITLE=Hector Costita Bisignani - A noite e' minha
DYEAR=1997
DGENRE=Jazz
TTITLE0=With Steve
TTITLE1=A noite e' minha
TTITLE2=Karim
TTITLE3=Choro portenho
TTITLE4=Paracachum
TTITLE5=Phil night
TTITLE6=Lou
TTITLE7=Nano
TTITLE8=Adamo
TTITLE9=Thank you Baba
EXTD=YEAR: 1997
EXTT0=
EXTT1=
EXTT2=
EXTT3=
EXTT4=
EXTT5=
EXTT6=
EXTT7=
EXTT8=
EXTT9=
PLAYORDER=
